<?xml version="1.0" standalone="no"?>
<!DOCTYPE svg PUBLIC "-//W3C//DTD SVG 1.1//EN" "http://www.w3.org/Graphics/SVG/1.1/DTD/svg11.dtd" >
<svg xmlns="http://www.w3.org/2000/svg">
<metadata></metadata>
<defs>
<font id="hackedregular" horiz-adv-x="1014" >
<font-face units-per-em="2048" ascent="1638" descent="-410" />
<missing-glyph horiz-adv-x="508" />
<glyph unicode="&#xd;" horiz-adv-x="508" />
<glyph unicode=" "  horiz-adv-x="508" />
<glyph unicode="&#x09;" horiz-adv-x="508" />
<glyph unicode="&#xa0;" horiz-adv-x="508" />
<glyph unicode="!" horiz-adv-x="706" d="M193 1434h320q-40 -890 -42 -995l-2 -12h-234zM237 269h236v-264q0 -5 -4 -5h-232q-4 0 -4 5v259q0 5 4 5z" />
<glyph unicode="&#x22;" horiz-adv-x="672" d="M197 1108h-30l-62 359q-4 23 -4 33q0 37 20.5 57t59.5 20t60.5 -19.5t21.5 -56.5q0 -8 -4 -34zM509 1108h-30l-62 359q-4 23 -4 33q0 37 20.5 57t59.5 20t60.5 -19.5t21.5 -56.5q0 -8 -4 -34z" />
<glyph unicode="#" horiz-adv-x="1012" d="M362 1432q210 -23 210 -28q0 -7 -75 -350h173l77 378q34 -3 216 -28l-76 -350h106v-191h-146q-12 -64 -12 -72h125v-33h-133l-35 -195h138v-190h-173v-118h-52v-255h-155v423h-103v-45h-103v-168h-57v-210h-158v283h48v120h-155q-3 118 -3 158l5 2h155q10 59 60 300h-152 v191h192q70 336 80 378h3zM459 863q0 -9 -60 -300h171q0 5 57 300h-168zM732 791v-33h90q7 0 10 33h-100z" />
<glyph unicode="$" horiz-adv-x="845" d="M371 1431h158v-134q85 -14 128 -47q42 -36 59 -69q46 -99 46 -188h-2q-133 -11 -181 -11q0 65 -40 109q-37 21 -69 21h-32q-84 0 -102 -65q-4 -18 -4 -29v-17q0 -91 96 -132q8 -7 134 -61q67 -31 124 -76v-2h-205v-23h270v-33h34v-353h-67v-182h-189v-139h-158v139h-170 v182h-123v122h69v42h-69v29h237v-193h243v290h-182v96h-225v23h109v2q-143 95 -143 269v15q0 196 156 260q70 21 98 21v134zM751 730h82v-23h-82v23zM0 485h78v-42h-78v42z" />
<glyph unicode="%" horiz-adv-x="1610" d="M449 1459q98 0 190.5 -49t144.5 -139.5t52 -190.5q0 -99 -50.5 -188.5t-143 -140t-193.5 -50.5q-100 0 -192.5 50.5t-143.5 140t-51 188.5q0 100 52 190.5t144.5 139.5t190.5 49zM206 1066q13 -92 55.5 -173.5t106.5 -124.5q57 -40 114 -40q7 0 13 1q63 3 115 53t73 136 q13 54 13 111q0 32 -4 65q-12 93 -56 175.5t-107 124.5q-58 38 -115 38h-11q-61 -3 -113 -52t-73 -135q-15 -58 -15 -117q0 -31 4 -62zM297 -29l940 1461h84l-938 -1461h-86zM1161 738q97 0 190 -49.5t145 -140t52 -189.5q0 -100 -50.5 -189.5t-143 -139.5t-193.5 -50 t-193 50t-143 139.5t-51 189.5q0 99 52 189.5t144.5 140t190.5 49.5zM918 344q13 -92 55.5 -173.5t106.5 -124.5q59 -39 116 -39h11q63 3 115 53t73 136q13 54 13 111q0 32 -4 65q-12 93 -56 175.5t-107 124.5q-58 38 -115 38h-11q-61 -3 -113 -52t-73 -135 q-15 -58 -15 -117q0 -31 4 -62z" />
<glyph unicode="&#x26;" horiz-adv-x="1683" d="M1051 196l-554 683q-118 0 -179.5 -86t-61.5 -204q0 -91 35.5 -181.5t101.5 -164.5q72 -83 165 -127t194 -44q88 0 169 33.5t130 90.5zM1394 0q-56 0 -139 25t-167 132q-67 -74 -175 -123.5t-241 -49.5q-229 0 -374.5 150.5t-145.5 385.5q0 161 76 266.5t225 151.5 q-42 61 -62.5 116t-20.5 111q0 105 77 197t182 92q68 0 142 -39q9 -6 18 -6q23 0 38 45h46l96 -281h-46q-55 133 -155 178q-85 37 -141 37q-65 0 -106 -45.5t-41 -117.5q0 -131 102 -267l531 -670q98 146 121 244q17 78 17 130q0 97 -62 97h-90v50h443v-50h-90 q-95 0 -145 -227q-31 -132 -155 -292q109 -136 248 -136h16q143 17 192 128l49 -1l-103 -231h-160z" />
<glyph unicode="'" horiz-adv-x="346" d="M197 1108h-30l-62 359q-4 23 -4 33q0 37 20.5 57t59.5 20t60.5 -19.5t21.5 -56.5q0 -8 -4 -34z" />
<glyph unicode="(" horiz-adv-x="758" d="M252 601q2 277 99.5 530t268.5 442h80q-172 -242 -230 -438q-57 -193 -57 -523v-22q0 -330 57 -522q58 -196 230 -438h-80q-171 189 -268.5 441.5t-99.5 529.5z" />
<glyph unicode=")" horiz-adv-x="758" d="M138 -370h-80q172 242 230 438q57 192 57 522v22q0 330 -57 523q-58 196 -230 438h80q171 -189 268.5 -442t99.5 -530q-2 -277 -99.5 -529.5t-268.5 -441.5z" />
<glyph unicode="*" horiz-adv-x="1024" d="M498 1294q-4 71 -37 130q-37 66 -37 84q0 32 23.5 51.5t62.5 19.5q37 0 61.5 -18t24.5 -47q0 -21 -36 -89q-33 -61 -37 -130q66 25 113 75q51 55 69 61q11 3 21 3q18 0 35 -10q26 -17 38 -53q6 -19 6 -36q0 -15 -4 -28q-10 -30 -38 -38q-6 -2 -19 -2q-25 0 -76 9 q-28 5 -55 5q-41 0 -81 -11q44 -55 105 -83q68 -32 79 -47q13 -18 13 -38q0 -9 -2 -17q-8 -30 -39 -53q-29 -22 -59 -22q-1 0 -1 1q-31 0 -48 23q-12 17 -22 94q-10 67 -47 125q-38 -58 -46 -124q-9 -75 -20 -90q-19 -25 -49 -27h-5q-28 0 -57 21q-30 21 -39 51q-4 10 -4 20 q0 17 11 32q13 17 83 51q61 29 105 82q-41 11 -80 11q-27 0 -53 -5q-54 -11 -78 -11q-9 0 -14 2q-30 9 -41 38q-6 13 -6 29q0 17 6 36q11 35 36 53q17 12 34 12q9 0 18 -3q20 -6 74 -62q47 -49 112 -75z" />
<glyph unicode="+" d="M437 647h-350v140h350v369l1 1h139v-370h349l1 -1v-139h-350v-370h-140v370z" />
<glyph unicode="," horiz-adv-x="557" d="M238 258q44 0 88.5 -65.5t44.5 -151.5q0 -109 -71 -226.5t-139 -117.5v43q73 43 87 190q0 119 -129 161v42z" />
<glyph unicode="-" horiz-adv-x="670" d="M156 409q-40 0 -40 28v83q0 29 41 29h356q41 0 41 -29v-83q0 -28 -40 -28h-358z" />
<glyph unicode="." horiz-adv-x="498" d="M152 226h198q4 -1 4 -4v-218q0 -4 -4 -4h-194q-4 0 -4 4v222z" />
<glyph unicode="/" horiz-adv-x="569" d="M93 -50h-80l541 1484h80z" />
<glyph unicode="0" horiz-adv-x="1003" d="M472 1432q290 0 376 -162q50 -99 50 -147q20 -71 20 -326v-40h-137v-27h137v27h159v-27h-157q0 -208 -15 -466v-92h-127v-172h-593v97h-119v443h82v38h-127v137q0 444 75 553q44 90 152 134q97 30 224 30zM310 501v-30h42v-209h170v19h127v354h-23q0 355 -22 421 q-34 127 -125 127h-22q-104 0 -130 -147q-17 -58 -17 -535z" />
<glyph unicode="1" horiz-adv-x="694" d="M412 1434h175v-595h-74v-26h74v-365h-64v-26h105v-422h-172v19h-147v127h24v276h-24v196h60v36h-60v418q-174 -77 -196 -77q-60 171 -77 223h2q175 58 374 216zM587 839h149v-26h-149v26z" />
<glyph unicode="2" horiz-adv-x="864" d="M442 1431q263 0 332 -171q38 -96 38 -244q0 -255 -242 -492h162v-16h-171l5 16h-96v-16h91v-84h-129v-75h52v-103h344v-223h-344v-23h-445v227h84v244h78v192h58v21h134q79 87 103 138q51 83 51 192q0 132 -42 166q-30 16 -61 16h-28q-91 0 -119 -117q-15 -63 -15 -121 q-2 0 -2 -3q-224 19 -241 19q0 164 54 293q25 48 82 98q95 66 267 66zM378 663h127v21h-105q-3 0 -22 -21z" />
<glyph unicode="3" horiz-adv-x="976" d="M449 1430q252 0 324 -146q48 -88 48 -238v-43q0 -142 -60 -205v-93q35 -34 65 -81h33v-276h-131v-36h131v-214h-98v-65h-176v-33h-324v33h-119v86h-112v119h76v22h-76v105h253v-143h259v355h67v21h-269v126h-31q0 17 5 117h107q106 0 124 64q14 33 14 86v48 q0 113 -50 140q-23 12 -50 12h-26q-96 0 -122 -102q-9 -33 -12 -76l-236 12v2q0 208 96 314q88 89 290 89zM859 348h176v-36h-176v36z" />
<glyph unicode="4" horiz-adv-x="920" d="M777 1431v-846q0 -21 -2 -61h103v-204h-127v-34h45v-284q-36 -2 -53 -2h-197v277h-209v-24h-308q-5 0 -5 4v51h115v31h-115v96q9 26 197 421h-166v32h183q-14 -28 -14 -32h221q5 0 17 32h-224v2q0 2 258 541h281zM496 955q0 -7 -32 -67h34v67h-2zM500 888v-32h82v32h-82z M274 496h270v28h-46v332h-46q-5 0 -86 -173z" />
<glyph unicode="5" horiz-adv-x="929" d="M132 1437h710q0 -2 -2 -10q0 -28 -15 -237h-463q-3 -19 -19 -298q74 43 212 43q202 0 266 -120q57 -96 57 -346h-50v-249h-81v-38h81v-182h-203v17h-445v114h-141v204h253v-63h273v232h72v27h-72v122h-289q-5 0 -189 78q43 665 43 698q2 5 2 8z" />
<glyph unicode="6" horiz-adv-x="941" d="M511 1434q269 0 347 -179q35 -106 35 -184l-219 -44l-2 4v3q0 108 -78 156q-37 14 -69 14h-30q-94 0 -122 -108q-19 -74 -19 -233v-34q92 83 247 83h32q197 0 260 -187v-414h-94v-28h94v-103h-25v-67h-155v-78h-442v108h-147v368h94v35h-94v-35h-168v35h140q0 33 -2 147 q0 455 62 550q43 101 148 152q88 39 207 39zM363 553v-286h258v69h33v242h-65v115h-2q-52 0 -78 5q-102 0 -129 -69q-17 -36 -17 -76zM368 16h318v-16h-318v16z" />
<glyph unicode="7" horiz-adv-x="863" d="M42 1433h768v-175q0 -5 -48 -102q-73 -170 -141 -409h114v-39h-119v10l2 29h-94v-39h92v-165h-63v-204h-78v-339h-336v56h53v419h70v250h66q81 225 196 456q2 0 7 12h-499l-5 2q2 5 2 7q0 25 13 231z" />
<glyph unicode="8" horiz-adv-x="981" d="M464 1434q381 0 381 -357v-21q0 -153 -75 -252v-115h61v-461h-68v-35h68v-132h-146v-61h-583v411h59v31h-84l-24 -2v225h33q43 71 115 97v2q-116 61 -122 275q0 261 139 341q88 54 246 54zM345 1079q0 -173 51 -207q29 -19 71 -28q37 6 73 31q47 37 47 171v50 q0 115 -106 115h-19q-117 0 -117 -132zM831 738h153v-49h-153v49zM335 654v-111h-35v-294h143v33h144v372h-252z" />
<glyph unicode="9" horiz-adv-x="1027" d="M542 1435q278 0 355 -181q53 -93 53 -406h26v-525h-58v-232h-179v-52h-509v138h-90v188h227q11 -54 38 -82q47 -44 132 -44q82 0 116 82v204h-241q-175 0 -242 158q-16 40 -28 109h112v40h-117q-4 56 -4 104q0 303 79 386q86 113 330 113zM407 964v-26q0 -138 53 -176 q41 -21 84 -21q86 0 118 72q14 31 14 53v121q0 167 -55 198q-32 16 -82 16q-94 0 -118 -95q-14 -63 -14 -142zM-53 832h190q5 -27 5 -40h-195v40zM316 21h363v-21h-363v21z" />
<glyph unicode=":" horiz-adv-x="557" d="M145 167l82 84q15 14 29 14q13 0 31 -16l80 -86q12 -16 12 -29q0 -15 -14 -31l-80 -88q-20 -20 -29 -20q-16 0 -29 14l-88 101q-10 13 -10 26q0 15 16 31zM145 860l82 84q15 14 29 14q13 0 31 -16l80 -86q12 -16 12 -29q0 -15 -14 -31l-80 -88q-20 -20 -29 -20 q-16 0 -29 14l-88 101q-10 13 -10 26q0 15 16 31z" />
<glyph unicode=";" horiz-adv-x="557" d="M145 859l82 84q15 14 29 14q13 0 31 -16l80 -86q12 -16 12 -29q0 -15 -14 -31l-80 -88q-20 -20 -29 -20q-16 0 -29 14l-88 101q-10 13 -10 26q0 15 16 31zM238 258q44 0 88.5 -65.5t44.5 -151.5q0 -109 -71 -226.5t-139 -117.5v43q73 43 87 190q0 119 -129 161v42z" />
<glyph unicode="&#x3c;" d="M927 1074l-625 -359l625 -355v-167l-840 481v83l840 484v-167z" />
<glyph unicode="=" d="M87 631h840v-140h-840v140zM87 943h840v-140h-840v140z" />
<glyph unicode="&#x3e;" d="M87 1241l840 -484v-83l-840 -481v167l625 355l-625 359v167z" />
<glyph unicode="?" horiz-adv-x="807" d="M407 1437h30q273 0 335 -176q23 -66 23 -144v-26q0 -187 -195 -353q0 -2 -58 -65q-54 -72 -54 -144q0 -37 35 -132h-241q-42 66 -42 153q0 138 88 242q29 38 140 162q58 64 58 142v9q0 78 -49 93q-23 10 -65 10q-144 0 -144 -186q-15 0 -244 18q3 117 51 237 q85 160 332 160zM293 267h233v-267h-233q-4 0 -4 5v257q0 5 4 5z" />
<glyph unicode="@" horiz-adv-x="1436" d="M747 1433h23q312 0 510 -232q119 -149 119 -365q0 -284 -235 -478q-95 -72 -192 -72h-5q-86 0 -114 79q-2 17 -2 27v15q-100 -121 -271 -121q-166 0 -247 173q-20 52 -20 108v18q0 222 183 434q126 125 274 125h27q120 0 214 -93q35 -45 40 -72h2q0 5 50 131l17 -3h24 q-212 -554 -239 -631q-12 -49 -12 -76q0 -72 79 -72h2q174 0 326 257q57 119 57 254q0 354 -346 510q-120 42 -241 42h-23q-329 0 -540 -276q-123 -168 -123 -397q0 -462 404 -629q120 -47 267 -47q312 0 537 264q37 49 40 49h44q-123 -215 -409 -323q-107 -32 -212 -32 q-352 0 -582 269q-131 180 -131 456q0 404 367 624q160 84 338 84zM355 582v-20q0 -127 111 -202q52 -32 124 -32q238 0 328 306q113 285 113 296q-24 85 -79 121q-76 51 -163 51h-29q-230 0 -375 -345q-30 -94 -30 -175z" />
<glyph unicode="A" horiz-adv-x="1038" d="M452 1432h241q5 -21 235 -782h43v-471h-99v-37h99v-101h-266v290h-326v-123h-132v-208h-242v14h19v194h99v401h82zM565 1029v-3q-31 -170 -120 -538h224v162h-19q-80 348 -80 379h-5zM138 681h22q0 -9 9 -15q1 9 10 15h17v-2q-17 -24 -17 -27q4 -9 19 -29v-5h-9 q-14 0 -20 20q-15 -20 -17 -20h-12q-5 0 -5 5q3 0 20 27v4q-17 25 -17 27zM-65 652h188v-43h-188v43zM978 621h51v-12l-31 -39h29q4 -1 4 -5v-5q0 -5 -4 -5h-51v12l31 39h-29v15zM609 558h14v-24l27 24h14v-3l-21 -24q24 -34 24 -38h-15q-2 0 -22 26q-3 0 -7 -7v-19h-14v65z M983 536h29q22 -3 22 -22l-7 -12q7 -8 7 -29v-2h-15q-2 24 -7 24h-17v-24h-12q-5 0 -5 5v55q1 5 5 5zM995 522v-15h17q5 0 5 5v10h-22zM978 452h46q5 -1 5 -5v-5q0 -5 -5 -5h-14v-51h-17v51h-15q-5 0 -5 5v5q1 5 5 5zM973 367h12q7 0 15 -41h2q12 36 12 41h17 q-19 -65 -24 -65h-14zM452 312v-13q0 -4 -39 -16v-3l39 -14v-15l-61 22v17zM77 283h8q8 0 26 -66h-14q0 2 -5 15h-22q-2 -15 -7 -15h-12q21 66 26 66zM1005 283h7q24 0 29 -34q-7 -34 -31 -34q-34 6 -34 34q5 34 29 34zM993 251v-2q0 -13 12 -20h7q12 7 12 20v2 q-2 19 -17 19q-14 -5 -14 -19zM80 261q-5 -16 -5 -17h12l-5 17h-2zM705 24h322v-24h-322v24z" />
<glyph unicode="B" horiz-adv-x="991" d="M54 1433h407q271 0 345 -137q42 -72 42 -196v-100q0 -141 -123 -228q42 -7 106 -64h31q61 -62 79 -120q5 -20 5 -22h39v-24h-130v24h-267v76h-262v-417h164v30h98v287h267v-253h30v-159h-89v-37h89v-66h-339v-27h-370v27h-80v220h110v59h-110q-3 168 -3 250v106h-93v27 h93v56h-44v683q1 5 5 5zM331 1191v-355h61q108 0 142 36q34 29 34 157v5q0 110 -34 132q-23 25 -157 25h-46zM96 689v-27h132v27h-132zM42 657h49v-10q0 -5 -5 -5h-30v-10h27q5 -1 5 -5v-5q0 -5 -5 -5h-27v-12h35v-10q0 -4 -5 -4h-44v66zM453 566h135v-24h-135v24zM894 537 h8q5 -1 5 -5v-42q-4 -22 -22 -22q-23 4 -23 22v3q1 4 5 4h5q5 0 8 -14h9v49q1 5 5 5zM872 451h20q34 0 34 -37q0 -25 -32 -29h-27v61q1 5 5 5zM885 436v-37h9q15 0 15 15v5q0 17 -17 17h-7zM872 365h37q5 -1 5 -5v-10h-29v-12h24v-12h-24v-22q0 -5 -5 -5h-13v61q1 5 5 5z M529 326h52v-12l-32 -40h34v-9q0 -5 -5 -5h-46q-5 0 -5 5v7l32 39h-25q-5 0 -5 5v10zM333 284h3q46 -14 46 -19v-5q-5 -7 -46 -22l-3 5v2q0 7 30 15q0 5 -30 14v10z" />
<glyph unicode="C" horiz-adv-x="1059" d="M559 1433q300 0 378 -187q22 -46 22 -61h-126v-38h135v2q0 10 -9 36h231v-38h-219v-3q17 -80 24 -173q0 -5 -263 -19v2q0 239 -164 239h-28q-123 0 -150 -104q-22 -88 -22 -231v-195l-2 -29h-91v-46h91v-347h386v361h221v-361h-123v-222h-257v-19h-200v19h-203v111h135 v48h-202v164h-87v202h46q-3 126 -3 198q0 327 32 412q29 98 96 169q119 110 352 110zM385 313h12v-50h29v-15h-41q-4 0 -4 5v55q0 5 4 5zM686 313h15q12 -10 12 -19q2 0 17 19h12v-5q-17 -22 -17 -31q3 0 19 -26v-3h-14l-17 19q-9 -17 -14 -19h-15q5 10 22 34l-20 29v2z M884 226q24 -6 24 -14v-10h-10l-9 10h-10q-5 -1 -5 -5v-5q37 -7 37 -16v-8q0 -19 -22 -19h-10q-13 0 -21 14v10h14q0 -12 14 -12h3q3 0 7 7q0 3 -34 17l-2 5v12q0 8 24 14z" />
<glyph unicode="D" horiz-adv-x="1067" d="M71 1432h435q273 0 376 -185q86 -145 86 -479h43v-342h-423v38h132v304h-38v125q0 211 -94 269q-56 32 -178 32h-58v-419h39v-349h-287v322h-33v684zM689 532h14v-36h8v-12h-8v-15h-14v15h-26v9q26 36 26 39zM677 496h12v14q-3 0 -12 -14zM405 498h14q3 0 15 -17 q10 12 10 17h16v-2q-16 -23 -16 -29l19 -31h-19q0 8 -12 19q-9 -18 -15 -19h-14q16 29 21 31zM-57 426h130v-46h318v-94h197v94h423v-94h-291v-255h-329v-31h-316q-4 0 -4 5v375h-128v46zM391 426h197v-46h-197v46zM1011 426h282v-46h-282v46zM754 277h17q17 -47 21 -65h-12 q-4 0 -7 14h-19q-5 0 -7 -14h-15v2q0 2 22 63zM809 277h15l12 -41h2q0 4 12 41h15q0 -8 -20 -65h-14q-6 0 -22 65zM889 277h17v-65h-17v65zM934 277h27q31 0 31 -36q0 -25 -31 -29h-27v65zM951 262v-36h15q3 0 9 10v17q0 3 -9 9h-15zM761 257q0 -3 -5 -19h12q-4 16 -4 19h-3 z" />
<glyph unicode="E" horiz-adv-x="887" d="M125 1432h706v-234q0 -5 -5 -5h-419v-311h376v-2q0 -14 -5 -152q-2 0 -2 -3h17v-72h-326v-294h-87v-29h87v-89h369v-34h-29v-176h-441v-31h-210v513h-31v181h-229v31h229v707zM127 725v-31h118v31h-118zM489 313h17v-24h2q0 7 22 24h17l-24 -26l26 -39h-17q-19 27 -21 27 q-5 -1 -5 -5v-22h-17v65zM573 313h34q16 0 22 -19q0 -3 -10 -17q7 0 10 -29h-12q-5 0 -8 24h-19v-24h-17v65zM682 313h9q22 0 27 -29v-9q0 -8 -7 -17v-3q7 0 7 -4t-7 -8q-4 0 -8 8l-12 -3h-9q-24 0 -27 36q7 29 27 29zM672 284v-7q0 -17 17 -17h2v3h-4v2q0 4 7 7l7 -4 q0 1 2 14q-1 19 -19 19q-12 -3 -12 -17zM590 299v-15h17q5 0 5 5v5q0 5 -5 5h-17zM822 193h14v-3q0 -43 -7 -43t-7 31v15zM822 145h14v-15h-14v15z" />
<glyph unicode="F" horiz-adv-x="861" d="M73 1432h719v-238h-434v-340h374l5 -3l-3 -5q-2 -72 -2 -84h-41v-2q0 -26 -5 -111h38q0 -41 -7 -41h-263v-49h-137v-26h41v-125h137v-22h-137v-347l-2 -17h-148v-22h-130q-5 0 -5 5v36l3 24h70v36h-73v138h34v506h58v36h-92v651zM49 482h10q5 0 5 -5v-33q1 -15 7 -15h10 q3 0 7 7v41q1 5 5 5h9v-46q0 -21 -29 -21q-24 3 -24 21v46zM363 458h2q38 -17 44 -17v-14l-44 -15h-2v8q0 3 29 14v2q-5 0 -29 10v12zM225 408v-22h131v22h-131zM69 398h2q26 0 26 -22h-16q0 10 -12 10q-4 0 -8 -7q36 -14 36 -20q0 -2 3 -7q0 -18 -29 -22q-27 4 -27 25h17 q0 -10 5 -10h12q5 0 5 5v5q-36 9 -36 19v9q8 15 22 15zM44 314h8q14 0 19 -20l17 20h12v-5q-17 -23 -17 -32q3 0 19 -26v-3h-14q-2 0 -17 20q-9 -18 -15 -20h-14q17 30 22 32q-20 29 -20 34z" />
<glyph unicode="G" horiz-adv-x="1059" d="M533 1434h2q321 0 393 -209q33 -78 33 -219l-233 -31l-3 5v5q0 169 -114 202q-35 9 -85 12q-124 0 -160 -133q-21 -89 -21 -210v-112q0 -196 5 -294h59v-200h285v342h-180v183h542v-40h-71v-212h-145v-66h71v-407h-775v216h-88v19h38v22h50v81h-136v173h64q-2 76 -2 88 q0 455 50 550q14 59 83 131q101 104 338 104zM371 533h14v-64h-14v64zM954 447q15 -5 16 -12v-9q0 -4 -9 -10q2 -4 2 -7h5v5h12v-3q0 -11 -5 -11q0 -3 12 -17h-14l-7 5q-10 -7 -19 -7q-16 0 -19 21q3 10 11 14q-2 13 -2 19q0 7 17 12zM949 430q2 -4 2 -7q4 0 7 7q0 5 -4 5 q-5 0 -5 -5zM947 409l-5 -7v-2q0 -4 7 -8q9 4 9 8zM954 345q15 -5 16 -12v-10q0 -3 -9 -9q2 -5 2 -7h5v5h12v-3q0 -12 -5 -12q0 -2 12 -16h-14l-7 4q-10 -7 -19 -7q-16 0 -19 22q3 9 11 14q-2 13 -2 19q0 7 17 12zM949 328q2 -4 2 -7q4 0 7 7q0 5 -4 5q-5 -1 -5 -5zM454 328 q31 -5 31 -28v-7q-2 -31 -31 -31h-2q-29 0 -29 35q8 31 31 31zM509 326h52v-14h-16v-46q0 -4 -5 -4h-7q-5 0 -5 4v46h-14q-5 0 -5 4v10zM440 297v-12q0 -3 10 -9h11q8 0 10 19q0 12 -12 19h-2q-17 0 -17 -17zM947 307l-5 -7v-3q0 -3 7 -7q9 4 9 7q-10 10 -11 10zM951 243 q12 0 19 -12v-10q0 -4 -9 -9q2 -5 2 -7h5v4h12v-2q0 -12 -5 -12q0 -2 12 -17h-14l-7 5q-10 -7 -19 -7q-16 0 -19 21q3 10 11 15l-2 16v3q0 4 14 12zM949 226q2 -5 2 -7q4 0 7 7q0 5 -4 5q-5 -1 -5 -5zM947 205l-5 -8v-2q0 -3 7 -7q9 3 9 7zM951 140q12 0 19 -12v-9 q0 -4 -9 -10q2 -4 2 -7h5v5h12v-2l-5 -17q3 0 12 -12h-14l-7 5q-10 -7 -19 -7q-16 0 -19 21q3 10 11 14l-2 17v2q0 5 14 12zM949 124q2 -5 2 -7q4 0 7 7q0 4 -4 4q-5 0 -5 -4zM947 102l-5 -7v-2q0 -4 7 -7q9 3 9 7zM335 29h295v-29h-295v29z" />
<glyph unicode="H" horiz-adv-x="984" d="M53 1433h284v-571h287v571h241v-814h-99v-36h99v-583h-236q-5 0 -5 5v619h-287v-619q0 -5 -5 -5h-238v747h-41v686zM865 619h127v-36h-127v36z" />
<glyph unicode="I" horiz-adv-x="400" d="M82 1433h270q4 -1 4 -5v-696q0 -5 -4 -5h-32v-722q0 -5 -5 -5h-233q-5 0 -5 5v739h-72q-5 0 -5 5v31q1 5 5 5h72v643q1 5 5 5zM79 785v-41h138v41h-138z" />
<glyph unicode="J" horiz-adv-x="842" d="M511 1432h275v-470h-28v-511h28v-411h-660v88h-126v162h76v28h-76v36h271v-100h242v138q0 71 -2 195h-212v21h212v824zM513 608v-21h81v21h-81zM278 19h351v-19h-351v19z" />
<glyph unicode="K" horiz-adv-x="940" d="M47 1434h282v-270q0 -135 -5 -291v-3h3q35 66 190 340q80 139 80 210v14h289v-7q0 -138 -113 -301l-172 -249l169 -359h152v-43h-171v-3q41 -88 53 -106h31v-130h44v-234q-74 -2 -109 -2h-70q-37 0 -101 2v157h-63v207h-36l-38 109h286v43h-262q0 5 -46 145h-3 q-24 -46 -96 -145h121v-43h-133v-70h-17v-328h17v-72q0 -5 -5 -5h-272q-5 0 -5 5v113h128v48h-128v1268zM777 591h15q6 0 14 -39q4 0 15 39h21v-61q0 -5 -4 -5h-10v39h-2q0 -4 -12 -39h-8q-7 0 -14 34h-3v-29q0 -5 -4 -5h-8q-4 0 -4 5v56q0 5 4 5zM163 518v-43h164 q0 8 12 43h-176zM539 149h14q3 0 15 -16q9 16 12 16h14v-2l-19 -29q5 -1 22 -31h-20l-9 19q-15 -19 -17 -19h-15q17 30 22 31l-19 29v2z" />
<glyph unicode="L" horiz-adv-x="771" d="M18 1433h284v-588h-55v-607h423v-127h-84v-29h84v-82h-274v22h-376q-2 24 -2 36v320h72v43h-72v1012zM266 313h17q12 -17 14 -17q8 17 12 17h15q-3 -8 -19 -29q5 -10 21 -34h-17q-12 11 -12 20q-2 0 -17 -20h-14v3l19 29v2zM670 111h104v-29h-104v29z" />
<glyph unicode="M" horiz-adv-x="1356" d="M22 1434h320q53 -193 218 -773h126q5 0 41 139q80 273 179 634h296v-930h17v-170h-90v-31h90v-303h-252v111h31v344h-53v172h-32l-2 -9h-27v-245h-87v-114h-75v-194h-177v124h-109v170h-65v176h-37q-2 15 -24 92h254l-7 34h-254l7 -34h-34v-222h17v-245h-63v-44h63v-65 h-228v295h-43v1088zM274 763v-17q0 -22 2 -85h24q-24 97 -24 102h-2zM945 761l-22 -100h22q2 62 2 90v10h-2zM194 661v-34h80v34h-80zM690 661l-7 -34h228q10 27 10 34h-231zM947 661v-34h175v34h-175zM569 627q17 -77 22 -77h29v-128h46v198h12v7h-109zM1219 334h145v-31 h-145v31zM1233 291h12v-22h20v17q0 5 5 5h4q5 -1 5 -5v-46q0 -5 -5 -5h-9v22h-20v-22h-12v56zM1233 218h34q5 -1 5 -5v-7h-27v-10h22v-12h-22v-22h-12v56zM1236 145h34q4 0 4 -4v-5l-26 -34h26v-12h-41q-5 0 -5 7q8 12 27 36h-24v8q1 4 5 4zM1233 73h12v-32l3 -12h12 q5 0 5 5v34q0 5 5 5h4q5 -1 5 -5v-29q0 -22 -22 -22h-4q-14 0 -20 12v44zM0 39h257v-22h-257v22z" />
<glyph unicode="N" horiz-adv-x="1095" d="M56 1433h293q6 0 94 -230q8 -8 184 -453h75v683h257v-813h29v-317h-104v-61h104v-189h-385v240h-68q-138 337 -186 465v242h-36v-736h-58v-254h-240v547h44v2q-3 708 -3 874zM971 988h27q19 0 19 -20q0 -7 -7 -7q7 -9 7 -22v-5h-12q-2 20 -7 20h-12v-20h-15v54zM986 976 v-13h12q5 0 5 5v8h-17zM971 915h41v-12h-14v-41h-15v41h-12q-5 0 -5 5v2q1 5 5 5zM966 842h10q6 0 12 -31h5l7 31h15l-17 -53h-12q-6 0 -20 53zM969 770h14q1 -9 10 -15q8 15 12 15h10v-3q-15 -22 -15 -26q4 -1 17 -24h-17q0 7 -9 14q-9 -14 -13 -14h-12q17 25 17 26 q-14 23 -14 27zM487 750v-53h160q-19 53 -24 53h-136zM705 750v-53h-56q51 -128 61 -167h2v7q-7 131 -7 160h116v53h-116zM971 697h24q25 -3 25 -24v-2q0 -27 -22 -27h-27v53zM986 685v-31q19 0 19 14v3q0 12 -7 14h-12zM550 278h36v-12h-26v-9h21q5 -1 5 -5v-3q0 -5 -5 -5 h-21v-9h24q5 -1 5 -5v-2q0 -5 -5 -5h-34q-5 0 -5 5v46q1 4 5 4zM259 252h15q10 -30 10 -34h2q6 34 12 34h10v-3q-15 -51 -19 -51h-13q0 7 -17 54zM569 206h5q5 -1 5 -5v-32q0 -13 -12 -19h-7q-17 0 -17 17v5h12q0 -10 5 -10h4v39q1 5 5 5zM550 133h5q5 0 5 -19l21 19h13v-2 l-20 -22q3 0 22 -29l-5 -3h-7q-3 0 -20 22q-4 0 -7 -22h-7q-5 0 -5 5v46q1 5 5 5zM603 27h465v-27h-465v27z" />
<glyph unicode="O" horiz-adv-x="1115" d="M550 1433q308 0 405 -216q55 -105 55 -405v-7h-106v-48h106v-517h-70v-187h-139v-53h-486v53h-60v187h-125v146h75v76h-75v-76h-177v76h134q-2 176 -2 269v122q0 340 115 455q106 125 350 125zM375 939h2l-2 -4v-130h-108v-48h108q-3 -309 -3 -467v-50h240v79h110v2 q0 146 -2 407q0 11 2 56q0 283 -33 347q-34 62 -125 62h-36q-108 0 -134 -95q-12 -48 -19 -159zM1010 805h172v-48h-172v48zM1022 748h5q6 0 9 -29q4 0 12 29h7q6 0 10 -31h2l7 31h12v-3q-11 -52 -16 -52h-10q0 4 -7 31h-2q-4 -31 -10 -31h-10q-7 31 -14 52zM1027 676h9 q6 0 15 -34h2q0 5 9 34h17v-55h-12v28h-2q-7 -28 -12 -28h-7q-7 22 -7 26h-3q0 -26 -5 -26h-9v50q1 5 5 5zM1019 604h10q12 -7 12 -17q1 0 14 17h10v-5l-14 -21q0 -2 16 -27v-2h-12l-14 17q-8 -17 -12 -17h-12q17 25 17 29q-15 22 -15 26zM1027 532h14q24 0 24 -17v-2l-5 -7 q4 0 7 -8v-9q-5 -12 -24 -12h-21v50q1 5 5 5zM1036 520v-10h15v10h-15zM665 520h14v-19h17v14q1 5 5 5h9v-53h-14v22h-17v-22h-14v53zM1036 501v-12h17v7q0 5 -5 5h-12zM1027 460h31q4 -1 4 -5v-7h-26v-9h24v-12h-24v-10h26v-12h-40v50q1 5 5 5zM665 448h40v-5q0 -9 -24 -36 q27 0 27 -4v-8h-46v10q18 21 24 31h-21v12zM413 379q21 0 24 -32q0 -23 -29 -26q-24 6 -24 26q0 32 29 32zM679 376h14q0 -6 20 -52h-12q-5 0 -5 9h-17q-5 0 -5 -9h-14v2q5 9 19 50zM399 357v-10q0 -14 14 -14q10 2 10 14v10q0 4 -10 10h-5q-3 0 -9 -10zM684 357l-3 -12h10 q-3 12 -7 12zM408 307q16 0 24 -15v-7h-12q0 10 -14 10l-7 -10v-9q0 -15 14 -15q2 0 12 12h10q0 -20 -27 -24q-24 7 -24 27q3 31 24 31z" />
<glyph unicode="P" horiz-adv-x="1035" d="M21 1431h369q324 0 414 -167q53 -106 53 -269q-3 -29 -3 -59h205v-69h-212v2q5 62 5 67h-119v-69h114v-243h-236v-84h-2q-273 -2 -309 -2v-126h-50v-224h28v-188h-224v88h-31v74q0 128 -2 417h136v73h-136v779zM300 1188v-407h85v59h169q34 31 34 174q0 137 -62 157 q-23 17 -105 17h-121zM864 852h7q12 -10 12 -19l16 19h10v-4q-19 -26 -19 -50h-7q-5 0 -7 28q-4 0 -17 24zM861 781h43v-12h-14v-38q0 -5 -5 -5h-5q-4 0 -4 5v38h-15v12z" />
<glyph unicode="Q" horiz-adv-x="991" d="M462 1433q267 0 350 -187q48 -91 48 -350v-6h-91v-41h91v-447h-60v-162h-120v-157h52v-83h-230v91h-151v149h-168v162h-83v126h64v66h-64v-66h-153v66h116q-2 151 -2 232v106q0 293 99 393q92 108 302 108zM311 1006h2l-2 -4v-112h-93v-41h93q-2 -268 -2 -404v-43h93v68 h210v2q0 126 -3 352q0 9 3 48q0 244 -29 300q-30 54 -108 54h-31q-94 0 -116 -83q-10 -41 -17 -137zM860 890h149v-41h-149v41zM872 840h29q4 0 4 -4v-6h-22v-8h14q4 -1 4 -4v-6h-18v-19h-11v47zM872 778h17q16 0 21 -10v-8l-5 -6q5 -7 7 -23h-9q-2 0 -8 16q-3 2 -8 2h-4 v-18h-11v47zM883 768v-10h12q4 0 4 4v2q0 4 -4 4h-12zM887 716h8l17 -47h-9q-4 0 -6 10h-16l-2 -10h-11v2q14 45 19 45zM885 687h8v2l-2 11q-4 0 -6 -13zM580 590q14 -4 17 -12v-5h-8l-9 7h-4q-4 -1 -4 -4t23 -11q4 -7 4 -10q-5 -15 -21 -15q-10 0 -18 13v6h10q1 -8 6 -8h11 v4q0 2 -23 12q-2 4 -2 9v4q0 5 18 10zM585 528q18 0 20 -25v-4l-4 -15q4 0 4 -4q-4 0 -4 -4l-8 4l-10 -2q-23 4 -23 25q5 25 25 25zM572 503q0 -11 8 -14h5l-2 4q0 4 4 4h2l4 -2q0 2 2 6q0 15 -12 17q-11 -3 -11 -15z" />
<glyph unicode="R" horiz-adv-x="917" d="M36 1430h490q246 0 318 -173q31 -89 31 -204v-60q0 -208 -91 -317h-104v-53h159v-342h-94v-53h142v-202h-298v323h-115v209h-200v-354h43v-204h-276q-5 0 -5 5v574h123v41h-123v810zM317 1197v-404h68q153 0 177 29q25 16 39 65h106v51h-96v-5q-8 -46 -12 -46h-137v51 h144q5 0 5 4q2 62 2 70q0 134 -46 164q-36 21 -132 21h-118zM286 546h12q10 -5 10 -15q4 0 9 15h15v-3l-15 -21q0 -2 17 -27v-2h-12q-2 0 -14 17q-7 -16 -12 -17h-12q16 25 16 29zM288 474h44v-8l-27 -33h27v-12h-46v9l26 34h-24v10z" />
<glyph unicode="S" horiz-adv-x="961" d="M484 1429q238 0 319 -153q56 -116 56 -227h-2q-163 -14 -223 -14q0 79 -49 133q-46 26 -85 26h-40q-102 0 -124 -79q-5 -23 -5 -36v-21q0 -112 118 -162q10 -9 164 -75q82 -38 152 -94v-2h-251v-28h331v-40h42v-434h-82v-223h-636v223h-150v150h85v52h-85v35h291v-237 h298v357h-223v117h-277v28h134v2q-176 117 -176 331v19q0 179 110 272q100 80 308 80zM845 725h101v-28h-101v28zM-77 425h96v-52h-96v52zM564 425h30q5 -1 5 -5v-7h-26v-9h23v-7q0 -5 -4 -5h-19v-10h26v-7q0 -4 -5 -4h-30q-5 0 -5 4v45q1 5 5 5zM552 354h9q2 0 17 -18 q7 18 11 18h7q5 0 5 -4q-21 -24 -21 -50h-7q-5 0 -7 28q-14 19 -14 26zM545 284h9q6 0 12 -31h5q6 31 11 31h10q4 -1 4 -5v-44q0 -5 -4 -5h-7v30h-3l-9 -30h-7q-5 0 -12 30h-2v-30h-7q-5 0 -5 5v44q1 5 5 5zM819 211h24q19 0 19 -19q-5 0 -5 -4q7 -9 7 -17q-6 -14 -26 -14 h-14q-5 0 -5 5v49zM833 199v-9h10q4 0 4 5v4h-14zM833 181v-12h12q5 0 5 5v2q0 5 -5 5h-12zM819 141h10q5 0 21 -33h2v33h12v-49q0 -5 -5 -5h-5q-2 0 -23 30v-25q0 -5 -5 -5h-2q-5 0 -5 5v49z" />
<glyph unicode="T" horiz-adv-x="736" d="M-42 1433h840v-239h-278v-991h126v-29h-126v-109h-75v-38h53v-27h-255q-5 0 -5 5v1189h-280v239zM421 203v-29h97v29h-97z" />
<glyph unicode="U" horiz-adv-x="939" d="M22 1434h276v-758h-130v-41h130v-141q0 -194 69 -227q35 -21 87 -21h85v250h76v938h274v-881h-99v-64h99q-2 -32 -2 -47v-281h-144v-161h-641v198h-59v593h-21v643zM298 676h156v-41h-156v41zM757 149h9q6 0 12 -33h2q10 29 10 33h14q-15 -55 -21 -55h-7q-5 0 -19 55z " />
<glyph unicode="V" horiz-adv-x="1047" d="M6 1433h304q3 -24 115 -558h63v-55h-76v55h-107v-55h107v-257h34v-133h84v196h31v194h61v55h-48q113 534 116 558h304q-165 -717 -165 -731v-249h-84v-50h63v-146h-113v-257h-356q-6 0 -29 110h92v60h-103q-6 0 -28 116q-11 35 -265 1147zM711 246h31q13 0 18 -15l-7 -16 q5 0 7 -26h-10q-5 0 -8 21h-18v-21h-13v57zM724 236v-13h16q5 0 5 5v3q0 5 -5 5h-16zM711 168h42v-8q0 -5 -6 -5h-23v-8h23v-13h-23v-24h-13v58zM711 89h13v-58h-13v58z" />
<glyph unicode="W" horiz-adv-x="1367" d="M-3 1433h271l80 -720h75q2 9 66 720h343q66 -734 69 -748h113q75 644 84 748h271l-113 -760h-21v-141h-205v-36h162v-214h-155v-188h-42v-82h-174v463h-113v167q0 22 -45 405h-5v-2l-37 -332h18v-513h-167v-200h-214v200h-82v473h-66zM119 652h14l10 -31h2q7 31 12 31h9 v-3q-14 -49 -18 -49h-12q0 7 -17 52zM117 581h14v-35q0 -2 10 -7q9 3 9 7v35h14v-26q0 -20 -14 -26h-14q-19 0 -19 26v26zM117 511h35q4 0 10 -10v-9l-5 -7q4 -8 7 -26h-14q0 6 -2 19h-17v-19h-9q-5 0 -5 5v47zM131 501v-12h14q5 0 5 5q-2 5 -2 7h-17zM126 440h38v-12h-23 v-7h16q5 -1 5 -5v-7h-21v-21h-10q-5 0 -5 5v47zM141 372q21 -5 21 -19l-5 -2h-5l-9 9h-7q-10 -4 -10 -16q0 -17 15 -17q9 4 9 7v2q-12 0 -12 5v3q1 4 5 4h19v-30h-3q-2 0 -7 2l-14 -2h-2q-21 3 -21 21v9q0 20 26 24zM117 299h14v-19h19v19h14v-47q0 -5 -5 -5h-9v21h-19v-21 h-9q-5 0 -5 5v47zM1044 271h14q5 -21 5 -29h2q7 23 7 29h10q6 0 9 -31h3q4 31 9 31h9q-11 -52 -16 -52h-10l-7 28h-2q-5 -26 -5 -28h-14q-4 20 -14 52zM1046 200h12q5 0 10 -14q4 0 9 14h14v-2l-14 -22q0 -1 17 -25v-3h-12q-6 0 -12 17q-12 -17 -14 -17h-12q0 2 17 26v2 l-15 22v2z" />
<glyph unicode="X" horiz-adv-x="991" d="M29 1432h289v-12q0 -136 50 -207q130 -230 130 -248h3q0 11 154 304q19 74 19 132v31h272v-2q0 -202 -72 -303q-16 -31 -231 -364q45 -72 45 -77h-89v-41h114q12 -12 154 -248v-180h48v-111h-106v-34h106v-55h-323v380h-36q-67 143 -67 152h-3q-19 -50 -70 -152v-197h-98 v-198q-74 -2 -109 -2h-185l-24 2v234h65v205h166v36h-77v139h104q7 8 86 135v5q-234 350 -255 385q-60 94 -60 284v7zM332 193h15q0 -4 9 -34h3q7 34 12 34h14v-56h-7q-5 0 -5 5v24h-2q-8 -29 -12 -29h-3q-12 11 -12 27h-2q0 -27 -5 -27h-5q-5 0 -5 5v46q1 5 5 5zM332 120 h19q14 0 20 -12v-12q-6 -12 -20 -12h-9v-14q0 -5 -5 -5h-5q-5 0 -5 5v46q1 4 5 4zM342 108v-12h12q5 0 5 5v3q0 4 -5 4h-12z" />
<glyph unicode="Y" horiz-adv-x="1041" d="M85 1434h282q0 -207 72 -352q78 -188 106 -299v-2h3q36 132 149 409q29 132 29 244h265q-24 -216 -60 -318l-159 -362h-97v-248h-147v-48h147v-458h-274q-5 0 -5 5v224h-43v397h81v37h-89q-11 13 -166 373q-65 144 -65 174h118v50h-128q-19 159 -19 174zM-86 1260h190 l8 -50h-198v50zM687 745h44v-10l-27 -34h27v-7q0 -5 -5 -5h-36q-5 0 -5 5v5l27 33h-25v13zM675 506h118v-48h-118v48z" />
<glyph unicode="Z" horiz-adv-x="878" d="M12 1435h756v-182q0 -6 -116 -251h256v-63h-283q-3 0 -77 -154q-2 -11 -75 -162h41q-77 -169 -87 -181h-123v-56h99l-67 -144h263v-75h237v-162q0 -5 -5 -5h-399v24h-420v138h60v154q17 44 145 307h-41v3l273 569h-437v240zM517 1002v-63h101q5 0 32 63h-133z" />
<glyph unicode="[" horiz-adv-x="758" />
<glyph unicode="\" horiz-adv-x="569" />
<glyph unicode="]" horiz-adv-x="758" />
<glyph unicode="^" />
<glyph unicode="_" horiz-adv-x="742" d="M-360 -97h1128v-73h-252v-62h-876v135z" />
<glyph unicode="`" horiz-adv-x="1024" d="M673 1079h-69l-330 202q-31 20 -46.5 40t-15.5 42q0 31 20.5 51t53.5 20q20 0 40.5 -12t55.5 -47z" />
<glyph unicode="a" horiz-adv-x="984" d="M451 1430h241q5 -21 234 -781h44v-471h-99v-36h99v-101h-266v289h-325v-123h-133v-207h-241v14h19v193h99v401h82zM564 1027v-2q-31 -171 -120 -538h224v162h-19q-80 347 -80 378h-5zM-65 651h188v-43h-188v43zM704 24h321v-24h-321v24z" />
<glyph unicode="b" horiz-adv-x="995" d="M53 1420h403q270 0 343 -136q41 -71 41 -194v-99q0 -140 -121 -226q41 -7 104 -63h32q59 -62 77 -119q5 -20 5 -22h39v-24h-129v24h-264v75h-260v-413h163v29h97v285h264v-251h29v-157h-87v-37h87v-65h-335v-27h-366v27h-80v218h109v58h-109q-3 167 -3 248v105h-92v26h92 v56h-43v677q0 5 4 5zM328 1180v-352h60q107 0 141 36q34 29 34 156v5q0 108 -34 131q-22 24 -155 24h-46zM95 682v-26h131v26h-131zM449 561h134v-24h-134v24z" />
<glyph unicode="c" horiz-adv-x="1047" d="M558 1433q300 0 377 -188q23 -45 23 -60h-126v-38h136v2q0 10 -10 36h231v-38h-219v-3q17 -81 24 -173q0 -5 -263 -19v2q0 238 -163 238h-30q-122 0 -149 -104q-21 -87 -21 -231v-195l-3 -29h-92v-45h92v-347h385v361h222v-361h-123v-222h-257v-19h-200v19h-203v111h135 v48h-203v164h-86v203h46q-3 124 -3 197q0 327 31 412q31 98 97 168q118 111 352 111z" />
<glyph unicode="d" horiz-adv-x="1040" d="M70 1430h436q272 0 374 -185q88 -144 88 -478h43v-342h-424v39h133v303h-39v125q0 211 -94 269q-55 31 -177 31h-59v-418h40v-349h-286v323h-35v682zM-57 425h129v-45h319v-94h196v94h424v-94h-291v-255h-329v-31h-316q-5 0 -5 5v375h-127v45zM391 425h196v-45h-196v45z M1011 425h281v-45h-281v45z" />
<glyph unicode="e" horiz-adv-x="909" d="M95 1423h701v-233q0 -5 -5 -5h-416v-308h373v-3q0 -13 -4 -151q-3 0 -3 -2h17v-72h-323v-292h-87v-29h87v-89h366v-33h-29v-175h-438v-31h-208v510h-31v180h-228v31h228v702zM97 721v-31h117v31h-117z" />
<glyph unicode="f" horiz-adv-x="718" d="M0 1427h716v-238h-432v-338h372l5 -3l-3 -5q-2 -72 -2 -84h-41v-2q0 -25 -5 -111h39q0 -40 -7 -40h-262v-49h-137v-26h41v-125h136v-22h-136v-346l-3 -16h-146v-22h-130q-5 0 -5 5v36l2 24h70v36h-72v137h34v504h57v37h-91v648zM151 406v-22h130v22h-130z" />
<glyph unicode="g" horiz-adv-x="1062" d="M531 1430h3q320 0 391 -209q33 -77 33 -218l-232 -31l-3 5v5q0 169 -114 201q-34 10 -85 12q-123 0 -159 -133q-21 -88 -21 -208v-112q0 -195 5 -294h59v-199h284v341h-180v183h541v-40h-71v-211h-145v-67h71v-405h-773v216h-88v19h38v21h50v81h-135v173h64q-2 76 -2 87 q0 454 49 548q15 60 83 131q101 104 337 104zM334 28h294v-28h-294v28z" />
<glyph unicode="h" horiz-adv-x="957" d="M23 1430h284v-570h286v570h240v-812h-99v-36h99v-582h-236q-4 0 -4 5v617h-286v-617q0 -5 -5 -5h-238v745h-41v685zM833 618h127v-36h-127v36z" />
<glyph unicode="i" horiz-adv-x="400" d="M82 1433h270q4 -1 4 -5v-696q0 -5 -4 -5h-32v-722q0 -5 -5 -5h-233q-5 0 -5 5v739h-72q-5 0 -5 5v31q1 5 5 5h72v643q1 5 5 5zM79 785v-41h138v41h-138z" />
<glyph unicode="j" horiz-adv-x="842" d="M511 1432h275v-470h-28v-511h28v-411h-660v88h-126v162h76v28h-76v36h271v-100h242v138q0 71 -2 195h-212v21h212v824zM513 608v-21h81v21h-81zM278 19h351v-19h-351v19z" />
<glyph unicode="k" horiz-adv-x="911" d="M0 1424h280v-268q0 -134 -5 -289v-3h3q34 66 189 338q79 138 79 208v14h287v-7q0 -137 -112 -299l-170 -247l167 -356h151v-43h-170v-3q41 -88 53 -105h31v-129h43v-233q-73 -2 -108 -2h-69q-37 0 -101 2v156h-62v206h-36l-38 108h285v43h-261q0 5 -46 143h-2 q-24 -45 -96 -143h120v-43h-132v-70h-17v-325h17v-72q0 -5 -5 -5h-270q-5 0 -5 5v112h127v48h-127v1259zM115 515v-43h163q0 8 12 43h-175z" />
<glyph unicode="l" horiz-adv-x="762" d="M0 1436h285v-589h-56v-608h425v-128h-84v-29h84v-82h-275v22h-377q-2 24 -2 36v321h72v43h-72v1014zM654 111h104v-29h-104v29z" />
<glyph unicode="m" horiz-adv-x="1326" d="M22 1426h318q53 -192 216 -768h126q5 0 41 137q79 272 178 631h294v-925h16v-169h-89v-31h89v-301h-250v111h31v342h-53v171h-31l-2 -10h-27v-243h-87v-113h-74v-193h-176v123h-108v168h-65v176h-37q-2 14 -24 92h253l-7 34h-253l7 -34h-33v-222h16v-243h-62v-43h62v-65 h-226v293h-43v1082zM272 759v-17q0 -22 3 -84h24q-24 96 -24 101h-3zM939 756l-21 -98h21q3 61 3 89v9h-3zM193 658v-34h79v34h-79zM686 658l-7 -34h227q9 26 9 34h-229zM942 658v-34h173v34h-173zM566 624q16 -77 22 -77h29v-128h45v198h12v7h-108zM1211 332h145v-31h-145 v31zM0 39h255v-22h-255v22z" />
<glyph unicode="n" horiz-adv-x="1071" d="M41 1429h292q6 0 94 -229q7 -9 184 -452h75v681h255v-811h29v-316h-103v-61h103v-188h-383v239h-68q-138 336 -186 464v241h-36v-734h-58v-253h-239v545h43v3q-2 706 -2 871zM471 748v-53h159q-19 53 -24 53h-135zM688 748v-53h-56q51 -127 61 -166h2v7q-7 130 -7 159 h116v53h-116zM587 27h463v-27h-463v27z" />
<glyph unicode="o" horiz-adv-x="1117" d="M550 1431q308 0 405 -215q55 -105 55 -405v-7h-106v-48h106v-517h-70v-186h-139v-53h-486v53h-59v186h-125v146h74v77h-74v-77h-177v77h134q-2 175 -2 268v122q0 340 115 455q105 124 349 124zM375 938h3l-3 -4v-130h-107v-48h107q-2 -309 -2 -466v-51h239v79h110v3 q0 146 -2 407q0 11 2 55q0 282 -33 347q-34 62 -125 62h-35q-109 0 -135 -96q-12 -47 -19 -158zM1010 804h172v-48h-172v48z" />
<glyph unicode="p" horiz-adv-x="1010" d="M0 1438h371q325 0 416 -168q53 -106 53 -270q-3 -30 -3 -60h206v-69h-213v2q5 63 5 67h-120v-69h115v-244h-237v-84h-2q-274 -2 -311 -2v-127h-50v-225h28v-189h-225v89h-31v74q0 128 -2 418h136v74h-136v783zM280 1194v-409h86v59h170q33 31 33 175q0 137 -62 158 q-23 17 -105 17h-122z" />
<glyph unicode="q" horiz-adv-x="1024" d="M514 1429q266 0 349 -186q47 -91 47 -349v-6h-90v-42h90v-446h-59v-161h-120v-156h51v-83h-229v91h-150v148h-168v161h-82v126h64v66h-64v-66h-153v66h116q-2 151 -2 232v105q0 293 99 392q91 108 301 108zM363 1003h2l-2 -4v-111h-93v-42h93q-2 -266 -2 -402v-44h93v69 h209v2q0 126 -2 351q0 9 2 47q0 244 -29 299q-29 54 -108 54h-31q-93 0 -115 -82q-10 -41 -17 -137zM910 888h149v-42h-149v42z" />
<glyph unicode="r" horiz-adv-x="887" d="M0 1430h490q246 0 318 -173q31 -89 31 -204v-60q0 -208 -91 -317h-104v-53h159v-342h-94v-53h142v-202h-298v323h-115v209h-200v-354h43v-204h-276q-5 0 -5 5v574h123v41h-123v810zM281 1197v-404h68q153 0 177 29q25 16 39 65h106v51h-96v-5q-8 -46 -12 -46h-137v51h144 q5 0 5 4q2 62 2 70q0 134 -46 164q-36 21 -132 21h-118z" />
<glyph unicode="s" horiz-adv-x="964" d="M487 1429q238 0 319 -153q56 -116 56 -227h-2q-163 -14 -223 -14q0 79 -49 133q-46 26 -85 26h-40q-102 0 -124 -79q-5 -23 -5 -36v-21q0 -112 118 -162q10 -9 164 -75q82 -38 152 -94v-2h-251v-28h331v-40h42v-434h-82v-223h-636v223h-150v150h85v52h-85v35h291v-237 h298v357h-223v117h-277v28h134v2q-176 117 -176 331v19q0 179 110 272q100 80 308 80zM848 725h101v-28h-101v28zM-74 425h96v-52h-96v52z" />
<glyph unicode="t" horiz-adv-x="736" d="M-42 1433h840v-239h-278v-991h126v-29h-126v-109h-75v-38h53v-27h-255q-5 0 -5 5v1189h-280v239zM421 203v-29h97v29h-97z" />
<glyph unicode="u" horiz-adv-x="922" d="M0 1432h276v-757h-130v-40h130v-142q0 -194 69 -226q35 -22 87 -22h85v251h75v936h274v-880h-99v-64h99q-2 -31 -2 -47v-281h-144v-160h-640v198h-59v592h-21v642zM276 675h156v-40h-156v40z" />
<glyph unicode="v" horiz-adv-x="1011" d="M0 1434h304q3 -25 115 -559h63v-55h-76v55h-107v-55h107v-257h34v-133h84v196h32v194h60v55h-47q112 534 115 559h304q-165 -718 -165 -732v-249h-84v-49h63v-147h-113v-257h-356q-5 0 -29 110h92v60h-102q-7 0 -29 116q-11 35 -265 1148z" />
<glyph unicode="w" horiz-adv-x="1367" d="M0 1431h270l80 -719h75q3 9 66 719h343q66 -733 68 -747h113q75 644 85 747h270l-113 -759h-21v-141h-204v-35h162v-214h-155v-188h-43v-82h-174v463h-112v167q0 21 -45 404h-5v-3l-37 -331h19v-512h-167v-200h-214v200h-82v472h-66z" />
<glyph unicode="x" horiz-adv-x="1010" d="M29 1432h289v-12q0 -136 50 -207q130 -230 130 -248h3q0 11 154 304q19 74 19 132v31h272v-2q0 -202 -72 -303q-16 -31 -231 -364q45 -72 45 -77h-89v-41h114q12 -12 154 -248v-180h48v-111h-106v-34h106v-55h-323v380h-36q-67 143 -67 152h-3q-19 -50 -70 -152v-197h-98 v-198q-74 -2 -109 -2h-185l-24 2v234h65v205h166v36h-77v139h104q7 8 86 135v5q-234 350 -255 385q-60 94 -60 284v7z" />
<glyph unicode="y" horiz-adv-x="1023" d="M70 1430h281q0 -207 72 -351q77 -188 106 -298v-3h2q36 133 149 409q29 131 29 243h264q-24 -216 -60 -318l-159 -360h-96v-247h-146v-48h146v-457h-274q-4 0 -4 5v223h-44v397h82v36h-89q-11 13 -166 372q-65 144 -65 173h118v51h-127q-19 158 -19 173zM-101 1257h190 l7 -51h-197v51zM658 505h118v-48h-118v48z" />
<glyph unicode="z" horiz-adv-x="863" d="M0 1430h753v-181q0 -6 -115 -250h255v-63h-282q-3 0 -77 -154q-2 -11 -74 -161h41q-78 -169 -87 -181h-123v-55h99l-67 -144h262v-75h236v-161q0 -5 -5 -5h-397v24h-419v137h60v154q17 44 145 306h-41v2l272 568h-436v239zM503 999v-63h101q5 0 31 63h-132z" />
<glyph unicode="{" d="M240 698q172 5 223 71t51 133v468q0 74 77 141.5t185 67.5h108v-50h-90q-61 0 -107 -33.5t-47 -91.5v-500q0 -83 -60.5 -158.5t-142.5 -76.5v-2q82 -1 143 -76t61 -158l-1 -500q1 -58 47 -91.5t107 -33.5h90v-50h-108q-108 0 -184.5 67.5t-77.5 141.5v468q0 66 -51 132 t-223 71v60z" />
<glyph unicode="|" d="M427 1577h160v-1995h-160v1995z" />
<glyph unicode="}" d="M774 638q-172 -5 -223 -71t-51 -132v-468q-1 -74 -77.5 -141.5t-184.5 -67.5h-108v50h90q61 0 107 33.5t47 91.5l-1 500q0 83 61 158t144 76v2q-83 1 -143.5 76.5t-60.5 158.5v500q-1 58 -47 91.5t-107 33.5h-90v50h108q108 0 185 -67.5t77 -141.5v-468q0 -67 51 -133 t223 -71v-60z" />
<glyph unicode="~" d="M923 878v-156q-63 -72 -122 -97.5t-116 -25.5q-60 0 -177.5 48.5t-176.5 48.5q-51 0 -107.5 -28t-129.5 -112v156q64 73 123 99t114 26q64 0 181.5 -49.5t172.5 -49.5q52 0 108.5 28t129.5 112z" />
<glyph unicode="&#xa1;" horiz-adv-x="672" />
<glyph unicode="&#xa2;" horiz-adv-x="1139" />
<glyph unicode="&#xa3;" d="M748 1347q-72 31 -160 31h-2q-100 0 -190 -101q-84 -93 -84 -241q0 -15 1 -30q0 -135 53 -273h360v-60h-334q14 -30 31 -60q35 -63 35 -138q0 -161 -162 -375h402q130 0 189 132l49 -1l-103 -231h-719l1 50q187 238 187 418q0 77 -34 143q-17 32 -31 62h-161v60h135 q-58 143 -58 253q0 226 123.5 347t306.5 121h4q75 0 185.5 -14t110.5 -34v-161h-58q-5 61 -77 102z" />
<glyph unicode="&#xa4;" d="M350 560q41 -40 99 -57q29 -8 58 -8t58 8q58 17 99 57q40 41 57 99q9 29 9 58t-9 58q-17 58 -57 99q-41 40 -100 57q-29 8 -58 8t-58 -9q-58 -17 -98 -56q-39 -40 -56 -98q-10 -30 -10 -60q0 -28 9 -56q16 -59 57 -100zM240 903l-118 118l80 81l118 -118q44 30 99 46 q44 14 89 14q41 0 83 -12q57 -17 102 -48l118 118l80 -81l-117 -117q31 -46 48 -102q12 -42 12 -85q0 -42 -12 -85q-17 -56 -48 -102l117 -117l-80 -81l-118 118q-45 -32 -101 -48q-42 -12 -85 -12q-42 0 -85 12q-57 16 -102 48l-118 -118l-80 81l118 117q-32 46 -48 103 q-12 42 -12 84q0 44 13 87q16 55 47 99z" />
<glyph unicode="&#xa5;" horiz-adv-x="1262" d="M547 225l-2 242q0 19 -1.5 35t-4.5 32l-484 1q-14 0 -21 6.5t-7 19.5t6.5 19t21.5 6h467l-121 172h-344q-17 0 -23.5 5.5t-6.5 18.5q0 14 6 19.5t22 5.5h307q-43 57 -108 155q-131 197 -227 197q-7 0 -13 5.5t-6 11.5q0 19 10.5 27.5t32.5 8.5q27 0 123 -8t164 -8h88 q33 0 41 -6.5t8 -26.5q0 -8 -15 -14t-38 -6q-6 0 -18.5 2t-18.5 2q-24 0 -37.5 -9.5t-13.5 -25.5q0 -18 16.5 -52t46.5 -77l158 -221q13 -19 33 -53q41 -70 71 -70q9 0 16.5 5t14.5 15l277 396q8 12 13 26.5t5 24.5q0 18 -10 27t-37 14q-15 2 -41 4q-47 3 -47 25 q0 15 8 22.5t25 7.5q3 0 15 -1q56 -7 108 -7h139q30 0 65 1t37 1q11 0 18.5 -4.5t8.5 -11.5q0 -28 -38 -34q-18 -3 -27 -5q-63 -15 -147 -117q-7 -9 -12 -15l-169 -206h323q15 0 24 -6t9 -17q0 -15 -6 -20.5t-23 -5.5h-366q-46 -57 -96.5 -112.5t-52.5 -59.5h511 q18 0 25.5 -5.5t7.5 -17.5q0 -14 -7 -21t-22 -7h-530q0 -11 -1 -30.5t-1 -29.5l2 -215q0 -114 5.5 -150t20.5 -44q30 -17 107.5 -19t77.5 -31q0 -12 -10 -20t-25 -8q-2 0 -35.5 4t-64.5 4q-91 0 -208.5 -4t-142.5 -4q-31 0 -40 4t-9 16t8 18.5t37 12.5q9 2 25 5q74 16 92 32 q17 13 24 47t7 102z" />
<glyph unicode="&#xa6;" d="M427 371h160v-789h-160v789zM427 1578h160v-789h-160v789z" />
<glyph unicode="&#xa7;" d="M545 321q56 16 97 53q73 65 73 166q0 5 -1 10h-2q-1 14 -4 27q-22 61 -113 127q-59 29 -126 29q-78 0 -125 -44.5t-47 -117.5q0 -123 248 -250zM466 -346q113 6 185 69q72 64 72 165q0 125 -316 276q-123 64 -175.5 137t-52.5 177q0 148 89 237q67 65 170 82l-40 19 q-123 64 -175.5 137t-52.5 177q0 148 89 237q82 79 216 86q8 1 17 1h3q66 0 163 -16.5t97 -41.5v-194h-51q-5 81 -80 132q-70 47 -149 51h-15q-78 0 -125 -44.5t-47 -117.5q0 -132 287 -269q149 -67 204.5 -143.5t55.5 -187.5q0 -171 -101 -282q-47 -39 -99 -64 q108 -56 154 -118q55 -77 55 -187q0 -171 -101 -283q-124 -102 -277 -105v1q-6 -1 -13 -1h-3q-66 0 -163 16.5t-97 41.5v194h51q5 -81 80 -132q68 -45 145 -50z" />
<glyph unicode="&#xa8;" horiz-adv-x="1024" d="M223 1289l71 72q13 12 25 12q11 0 27 -14l69 -73q10 -14 10 -25q0 -13 -12 -27l-69 -75q-17 -17 -25 -17q-14 0 -25 12l-76 86q-9 12 -9 23q0 13 14 26zM588 1289l71 72q13 12 25 12q11 0 27 -13l69 -74q10 -14 10 -25q0 -13 -12 -26l-69 -76q-17 -17 -25 -17 q-14 0 -25 12l-76 87q-9 11 -9 22q0 13 14 26z" />
<glyph unicode="&#xa9;" horiz-adv-x="1674" d="M840 1456q145 0 280 -56.5t239 -160.5q102 -101 158.5 -238t56.5 -283q0 -147 -56.5 -282t-162.5 -240q-105 -105 -239 -159.5t-283 -54.5q-146 0 -278 55.5t-238 160.5q-106 104 -161.5 237.5t-55.5 282.5q0 148 55.5 283t159.5 238q102 104 238.5 160.5t286.5 56.5z M357 1197q-95 -96 -146 -219.5t-51 -259.5q0 -137 51 -259t148 -219q98 -96 219 -147t256 -51q137 0 259.5 50.5t219.5 145.5q97 98 149 221.5t52 258.5q0 134 -52 259.5t-145 219.5q-96 96 -220 147.5t-258 51.5q-137 0 -262 -51.5t-220 -147.5zM865 223q-142 0 -264 68 t-186 185t-64 243t65.5 244t187.5 184.5t254 66.5q38 0 75 -6.5t76 -20.5q5 -1 9 -1q19 0 26 30h42l72 -198h-44q-52 94 -131 124q-72 26 -147 26h-15q-86 -8 -166.5 -71t-121.5 -177q-33 -90 -33 -184q0 -25 2 -50q11 -121 69.5 -224t149.5 -152q72 -40 166 -42 q124 0 194 56t70 126h53v-100q0 -46 -96.5 -86.5t-242.5 -40.5z" />
<glyph unicode="&#xaa;" horiz-adv-x="648" />
<glyph unicode="&#xab;" horiz-adv-x="944" d="M174 479l342 303h14v-37l-205 -266l205 -266v-37h-14zM487 479l342 303h14v-37l-205 -266l205 -266v-37h-14z" />
<glyph unicode="&#xac;" d="M87 767h840v-491l-1 -1h-98v392h-741v100z" />
<glyph unicode="&#xae;" horiz-adv-x="1674" d="M751 1099v-374l3 -8q23 -56 56 -81q29 -22 56 -22h6q31 4 61.5 38.5t46.5 97.5q13 50 13 103q0 13 -1 27q-4 67 -28 124.5t-56.5 76t-63.5 18.5h-93zM984 576l82 -116q100 -141 150 -141h34v-50h-346v50h45q30 0 30 22q0 29 -69 114l-75 102q-42 0 -84 42v-159 q0 -121 36 -121h53v-50h-316v50h43q37 0 37 121v538q0 121 -37 121h-43v70h356q64 -1 125 -42q60 -41 92.5 -114t32.5 -152q0 -78 -32 -150.5t-114 -134.5zM840 1456q145 0 280 -56.5t239 -160.5q102 -101 158.5 -238t56.5 -283q0 -147 -56.5 -282t-162.5 -240 q-105 -105 -239 -159.5t-283 -54.5q-146 0 -278 55.5t-238 160.5q-106 104 -161.5 237.5t-55.5 282.5q0 148 55.5 283t159.5 238q102 104 238.5 160.5t286.5 56.5zM357 1197q-95 -96 -146 -219.5t-51 -259.5q0 -137 51 -259t148 -219q98 -96 219 -147t256 -51 q137 0 259.5 50.5t219.5 145.5q97 98 149 221.5t52 258.5q0 134 -52 259.5t-145 219.5q-96 96 -220 147.5t-258 51.5q-137 0 -262 -51.5t-220 -147.5z" />
<glyph unicode="&#xaf;" horiz-adv-x="670" />
<glyph unicode="&#xb0;" horiz-adv-x="674" d="M339 1372q-86 0 -147.5 -61t-61.5 -148t61 -147t148 -60t147 60t60 147t-60.5 148t-146.5 61zM339 1442q115 0 196 -81.5t81 -196.5q0 -114 -82 -196t-197 -82q-117 0 -197 81t-80 197t81.5 197t197.5 81z" />
<glyph unicode="&#xb1;" />
<glyph unicode="&#xb2;" />
<glyph unicode="&#xb3;" />
<glyph unicode="&#xb4;" horiz-adv-x="1024" d="M607 1375q35 35 55.5 47t40.5 12q33 0 53.5 -20t20.5 -51q0 -22 -15.5 -42t-46.5 -40l-330 -203h-69z" />
<glyph unicode="&#xb5;" horiz-adv-x="1180" />
<glyph unicode="&#xb6;" horiz-adv-x="1024" d="M929 1435v-70h-127v-1365h-82v1365h-166v-1365h-84v738q-174 8 -275.5 102.5t-101.5 245.5q0 157 107.5 253t285.5 96h443z" />
<glyph unicode="&#xb7;" horiz-adv-x="508" d="M145 740l82 84q15 14 29 14q13 0 31 -16l80 -86q12 -16 12 -29q0 -15 -14 -31l-80 -88q-20 -20 -29 -20q-16 0 -29 14l-88 101q-10 13 -10 26q0 15 16 31z" />
<glyph unicode="&#xb8;" horiz-adv-x="1024" d="M360 -290q85 -52 152 -52q66 0 94.5 21.5t28.5 66.5t-49 64q-40 16 -102 16q-16 0 -34 -2l48 176h63l-37 -104q32 4 62 5q86 0 134 -40.5t48 -113.5q0 -76 -58.5 -120.5t-160.5 -44.5q-109 0 -189 32v96z" />
<glyph unicode="&#xb9;" />
<glyph unicode="&#xba;" horiz-adv-x="718" />
<glyph unicode="&#xbb;" horiz-adv-x="944" d="M115 176h-14v37l205 266l-205 266v37h14l342 -303zM428 176h-14v37l205 266l-205 266v37h14l342 -303z" />
<glyph unicode="&#xbc;" horiz-adv-x="1708" />
<glyph unicode="&#xbd;" horiz-adv-x="1964" />
<glyph unicode="&#xbe;" horiz-adv-x="1708" />
<glyph unicode="&#xbf;" horiz-adv-x="748" />
<glyph unicode="&#xc0;" horiz-adv-x="1540" />
<glyph unicode="&#xc1;" horiz-adv-x="1540" />
<glyph unicode="&#xc2;" horiz-adv-x="1540" />
<glyph unicode="&#xc3;" horiz-adv-x="1540" />
<glyph unicode="&#xc4;" horiz-adv-x="1540" />
<glyph unicode="&#xc5;" horiz-adv-x="1540" />
<glyph unicode="&#xc6;" horiz-adv-x="2118" />
<glyph unicode="&#xc7;" horiz-adv-x="1399" />
<glyph unicode="&#xc8;" horiz-adv-x="1151" />
<glyph unicode="&#xc9;" horiz-adv-x="1151" />
<glyph unicode="&#xca;" horiz-adv-x="1151" />
<glyph unicode="&#xcb;" horiz-adv-x="1151" />
<glyph unicode="&#xcc;" horiz-adv-x="657" />
<glyph unicode="&#xcd;" horiz-adv-x="657" />
<glyph unicode="&#xce;" horiz-adv-x="657" />
<glyph unicode="&#xcf;" horiz-adv-x="657" />
<glyph unicode="&#xd0;" horiz-adv-x="1518" />
<glyph unicode="&#xd1;" horiz-adv-x="1554" />
<glyph unicode="&#xd2;" horiz-adv-x="1614" />
<glyph unicode="&#xd3;" horiz-adv-x="1614" />
<glyph unicode="&#xd4;" horiz-adv-x="1614" />
<glyph unicode="&#xd5;" horiz-adv-x="1614" />
<glyph unicode="&#xd6;" horiz-adv-x="1614" />
<glyph unicode="&#xd7;" d="M507 618l-247 -247l-99 99l247 247l-247 248l99 98l247 -247l248 247l98 -99l-247 -247l247 -247l-99 -99z" />
<glyph unicode="&#xd8;" horiz-adv-x="1614" />
<glyph unicode="&#xd9;" horiz-adv-x="1501" />
<glyph unicode="&#xda;" horiz-adv-x="1501" />
<glyph unicode="&#xdb;" horiz-adv-x="1501" />
<glyph unicode="&#xdc;" horiz-adv-x="1501" />
<glyph unicode="&#xdd;" horiz-adv-x="1233" />
<glyph unicode="&#xde;" horiz-adv-x="1120" />
<glyph unicode="&#xdf;" horiz-adv-x="1251" />
<glyph unicode="&#xe0;" horiz-adv-x="922" />
<glyph unicode="&#xe1;" horiz-adv-x="922" />
<glyph unicode="&#xe2;" horiz-adv-x="922" />
<glyph unicode="&#xe3;" horiz-adv-x="922" />
<glyph unicode="&#xe4;" horiz-adv-x="922" />
<glyph unicode="&#xe5;" horiz-adv-x="922" />
<glyph unicode="&#xe6;" horiz-adv-x="1454" />
<glyph unicode="&#xe7;" horiz-adv-x="905" />
<glyph unicode="&#xe8;" horiz-adv-x="909" />
<glyph unicode="&#xe9;" horiz-adv-x="909" />
<glyph unicode="&#xea;" horiz-adv-x="909" />
<glyph unicode="&#xeb;" horiz-adv-x="909" />
<glyph unicode="&#xec;" horiz-adv-x="514" />
<glyph unicode="&#xed;" horiz-adv-x="514" />
<glyph unicode="&#xee;" horiz-adv-x="514" />
<glyph unicode="&#xef;" horiz-adv-x="514" />
<glyph unicode="&#xf0;" horiz-adv-x="1139" />
<glyph unicode="&#xf1;" horiz-adv-x="1108" />
<glyph unicode="&#xf2;" horiz-adv-x="1010" />
<glyph unicode="&#xf3;" horiz-adv-x="1010" />
<glyph unicode="&#xf4;" horiz-adv-x="1010" />
<glyph unicode="&#xf5;" horiz-adv-x="1010" />
<glyph unicode="&#xf6;" horiz-adv-x="1010" />
<glyph unicode="&#xf7;" d="M87 647v140h839l1 -1v-139h-840zM398 408l82 84q15 14 29 14q13 0 31 -16l80 -86q12 -16 12 -29q0 -15 -14 -31l-80 -88q-20 -20 -29 -20q-16 0 -29 14l-88 101q-10 13 -10 26q0 15 16 31zM398 1101l82 84q15 14 29 14q13 0 31 -16l80 -86q12 -16 12 -29q0 -15 -14 -31 l-80 -88q-20 -20 -29 -20q-16 0 -29 14l-88 101q-10 13 -10 26q0 15 16 31z" />
<glyph unicode="&#xf8;" horiz-adv-x="1010" />
<glyph unicode="&#xf9;" horiz-adv-x="1059" />
<glyph unicode="&#xfa;" horiz-adv-x="1059" />
<glyph unicode="&#xfb;" horiz-adv-x="1059" />
<glyph unicode="&#xfc;" horiz-adv-x="1059" />
<glyph unicode="&#xfd;" horiz-adv-x="868" />
<glyph unicode="&#xfe;" horiz-adv-x="1010" />
<glyph unicode="&#xff;" horiz-adv-x="868" />
<glyph unicode="&#x131;" horiz-adv-x="514" d="M328 223q0 -173 100 -173h46v-50h-442v50h46q100 0 100 173v432q0 77 -111 77h-48v44q222 69 261 182h48v-735z" />
<glyph unicode="&#x2c6;" horiz-adv-x="1024" d="M221 1079l232 355h118l232 -355h-58l-233 216l-233 -216h-58z" />
<glyph unicode="&#x2c7;" horiz-adv-x="1024" d="M221 1434h58l233 -214l233 214h58l-232 -356h-118z" />
<glyph unicode="&#x2c9;" horiz-adv-x="1024" d="M254 1195v125h516v-125h-516z" />
<glyph unicode="&#x2d8;" horiz-adv-x="1024" d="M219 1349h51q17 -73 75 -107t167 -34t166 33.5t74 107.5h51q-20 -133 -94 -201.5t-197 -68.5q-122 0 -197 69t-96 201z" />
<glyph unicode="&#x2d9;" horiz-adv-x="1024" d="M422 1289l69 72q6 6 13 9t14 3q6 0 12.5 -3t12.5 -9l71 -76q5 -4 7 -10t2 -14q-1 -9 -3 -15t-8 -12l-71 -76q-12 -11 -16 -13.5t-7 -2.5q-10 0 -16.5 2.5t-10.5 8.5l-75 87q-4 4 -6 9.5t-2 13.5q0 6 3 12.5t11 13.5z" />
<glyph unicode="&#x2da;" horiz-adv-x="1024" d="M411 1257q0 -42 29 -71t71 -29t71 29t29 71q0 40 -29.5 69.5t-70.5 29.5t-70.5 -29.5t-29.5 -69.5zM335 1257q0 75 51 126t125 51q76 0 127.5 -51.5t51.5 -125.5q0 -75 -51.5 -126.5t-127.5 -51.5q-74 0 -125 51.5t-51 126.5z" />
<glyph unicode="&#x2db;" horiz-adv-x="1024" d="M640 0q-71 -62 -110.5 -119.5t-39.5 -112.5q0 -47 27 -75t73 -28q40 0 69.5 15.5t49.5 48.5l28 -16q-36 -63 -90.5 -97t-119.5 -34q-70 0 -114 35.5t-44 90.5q0 76 60.5 156.5t161.5 135.5h49z" />
<glyph unicode="&#x2dc;" horiz-adv-x="1024" d="M808 1382q-20 -103 -68.5 -154t-126.5 -51h-4q-50 0 -113 23q-66 24 -114 24q-39 0 -60.5 -20.5t-33.5 -71.5h-54q19 106 68 158.5t129 52.5q46 -1 113 -24q64 -23 112 -23h4q36 0 58 20t36 66h54z" />
<glyph unicode="&#x2dd;" horiz-adv-x="1024" d="M217 1079l144 273q24 44 45.5 63t46.5 19q28 0 48 -20t20 -47q0 -16 -10.5 -35t-30.5 -41l-205 -212h-58zM502 1079l144 273q24 44 45.5 63t46.5 19q28 0 48 -20t20 -47q0 -16 -10.5 -35t-30.5 -41l-205 -212h-58z" />
<glyph unicode="&#x2013;" horiz-adv-x="1108" d="M56 419v120h996v-120h-996z" />
<glyph unicode="&#x2014;" horiz-adv-x="2048" d="M0 419v120h2048v-120h-2048z" />
<glyph unicode="&#x2018;" horiz-adv-x="557" d="M319 1016q-44 0 -88.5 65.5t-44.5 151.5q0 109 71 226.5t139 117.5v-43q-73 -43 -87 -190q0 -119 129 -161v-42z" />
<glyph unicode="&#x2019;" horiz-adv-x="557" d="M238 1577q44 0 88.5 -65.5t44.5 -151.5q0 -109 -71 -226.5t-139 -117.5v43q73 43 87 190q0 119 -129 161v42z" />
<glyph unicode="&#x201a;" horiz-adv-x="557" d="M238 281q44 0 88.5 -65.5t44.5 -151.5q0 -109 -71 -226.5t-139 -117.5v43q73 43 87 190q0 119 -129 161v42z" />
<glyph unicode="&#x201c;" horiz-adv-x="910" d="M319 1016q-44 0 -88.5 65.5t-44.5 151.5q0 109 71 226.5t139 117.5v-43q-73 -43 -87 -190q0 -119 129 -161v-42zM672 1016q-44 0 -88.5 65.5t-44.5 151.5q0 109 71 226.5t139 117.5v-43q-73 -43 -87 -190q0 -119 129 -161v-42z" />
<glyph unicode="&#x201d;" horiz-adv-x="910" d="M238 1577q44 0 88.5 -65.5t44.5 -151.5q0 -109 -71 -226.5t-139 -117.5v43q73 43 87 190q0 119 -129 161v42zM591 1577q44 0 88.5 -65.5t44.5 -151.5q0 -109 -71 -226.5t-139 -117.5v43q73 43 87 190q0 119 -129 161v42z" />
<glyph unicode="&#x201e;" horiz-adv-x="910" d="M238 281q44 0 88.5 -65.5t44.5 -151.5q0 -109 -71 -226.5t-139 -117.5v43q73 43 87 190q0 119 -129 161v42zM591 281q44 0 88.5 -65.5t44.5 -151.5q0 -109 -71 -226.5t-139 -117.5v43q73 43 87 190q0 119 -129 161v42z" />
<glyph unicode="&#x2020;" d="M486 1022q-8 97 -54 178q-57 101 -57 129q0 49 36 78.5t96 29.5q57 0 94.5 -27.5t37.5 -71.5q0 -32 -55 -137q-46 -85 -55 -179q96 8 177 54q101 57 129 57q49 0 79 -36t30 -96q0 -57 -27.5 -94.5t-72.5 -37.5q-32 0 -136 55q-85 46 -179 57q8 -176 110 -277 q-106 -460 -112 -974h-38q-6 514 -114 974q102 101 111 277q-96 -10 -178 -55q-101 -57 -129 -57q-49 0 -78.5 36t-29.5 96q0 57 27.5 94.5t71.5 37.5q32 0 137 -56q85 -46 179 -55z" />
<glyph unicode="&#x2021;" d="M528 186q94 11 179 57q104 55 136 55q45 0 72.5 -37.5t27.5 -94.5q0 -60 -30 -96t-79 -36q-28 0 -129 57q-81 46 -177 54q9 -94 55 -179q55 -105 55 -137q0 -44 -37.5 -71.5t-94.5 -27.5q-60 0 -96 29.5t-36 78.5q0 28 57 129q46 81 54 178q-94 -9 -179 -55 q-105 -56 -137 -56q-44 0 -71.5 37.5t-27.5 94.5q0 60 29.5 96t78.5 36q28 0 129 -57q82 -45 178 -55q-9 226 -111 398q102 171 111 397q-96 -10 -178 -55q-101 -57 -129 -57q-49 0 -78.5 36t-29.5 96q0 57 27.5 94.5t71.5 37.5q32 0 137 -56q85 -46 179 -55q-8 97 -54 178 q-57 101 -57 129q0 49 36 78.5t96 29.5q57 0 94.5 -27.5t37.5 -71.5q0 -32 -55 -137q-46 -85 -55 -179q96 8 177 54q101 57 129 57q49 0 79 -36t30 -96q0 -57 -27.5 -94.5t-72.5 -37.5q-32 0 -136 55q-85 46 -179 57q8 -226 110 -397q-102 -172 -110 -398z" />
<glyph unicode="&#x2022;" horiz-adv-x="1024" d="M216 718q0 123 87 209t210 86q122 0 208.5 -86.5t86.5 -208.5t-87.5 -209.5t-209.5 -87.5q-123 0 -209 87t-86 210z" />
<glyph unicode="&#x2039;" horiz-adv-x="631" d="M174 479l342 303h14v-37l-205 -266l205 -266v-37h-14z" />
<glyph unicode="&#x203a;" horiz-adv-x="631" d="M115 176h-14v37l205 266l-205 266v37h14l342 -303z" />
<glyph unicode="&#x2044;" horiz-adv-x="342" d="M-342 -29l940 1461h84l-938 -1461h-86z" />
<glyph unicode="&#x20a3;" d="M247 357h-194v60h194v732q0 235 -103 235h-96v50h915l103 -231h-49q-59 182 -190 182l-316 -1q-102 0 -102 -235v-352h361q100 0 100 63v58h50v-342h-50v60q0 62 -100 62h-361v-281h194v-60h-194v-72q0 -235 102 -235h97v-50h-560v50h96q103 0 103 235v72z" />
<glyph unicode="&#x20a4;" d="M748 1347q-72 31 -160 31h-2q-100 0 -190 -101q-84 -93 -84 -241q0 -15 1 -30q0 -106 33 -213h380v-60h-360q12 -30 26 -60h352v-60h-321q35 -63 35 -138q0 -161 -162 -375h402q130 0 189 132l49 -1l-103 -231h-719l1 50q187 238 187 418q0 77 -34 143l-2 2h-172v60h143 q-14 31 -26 60h-135v60h113q-36 107 -36 193q0 226 123.5 347t310.5 121q75 0 185.5 -14t110.5 -34v-161h-58q-5 61 -77 102z" />
<glyph unicode="&#x20a7;" horiz-adv-x="2028" d="M409 1384v-662q3 -9 7 -17q41 -102 108 -153q57 -44 116 -44q10 0 19 1q68 8 127 75t87 177q22 87 22 179q0 24 -1 47q-7 116 -49.5 218.5t-108.5 144.5q-56 35 -112 35q-10 0 -21 -1h-194zM1496 908h-179v-685q0 -81 34 -119q28 -31 81 -37l-71 192l49 1 q55 -130 114 -174q57 -44 127 -44h7q92 0 151 52q59 53 59 136q0 102 -259 226q-101 52 -144 112t-43 145q0 121 73 194zM1039 910q-7 -101 -48 -194q-50 -114 -141 -177.5t-190 -63.5q-100 0 -191 64q-33 22 -60 51v-305q0 -235 102 -235h97v-50h-560v50h96q103 0 103 235 v864q0 235 -103 235h-96v50h618q92 -2 181 -62q91 -62 143 -177q50 -113 51 -237h10q216 0 216 355h50v-355h259q42 19 110 20h2q54 0 133.5 -13.5t79.5 -33.5v-159h-42q-4 66 -65.5 108t-133.5 42q-64 0 -102.5 -36.5t-38.5 -96.5q0 -108 235 -220q122 -55 167.5 -117.5 t45.5 -153.5q0 -140 -83 -231q-102 -84 -228 -86q-58 0 -105 11q-28 6 -56 6q-18 0 -36 -3q-28 -5 -59 -5q-124 0 -173.5 57t-57.5 176h-1v687h-129z" />
<glyph unicode="&#x20ac;" d="M140 372q-62 135 -76 281h-108l17 60h87v29q0 16 1 31h-71l17 60h58q14 145 76 281q81 178 226 274t298 96q43 0 87 -8q40 -10 82 -29q8 -6 16 -6q20 0 34 45h41l84 -281l-40 -1q-49 134 -138 178q-43 22 -81 32v3q-50 16 -101 16q-17 0 -34 -2q-120 -12 -226 -113.5 t-157 -273.5q-32 -104 -39 -211h706l-17 -60h-692q0 -30 2 -60h674l-17 -60h-652q17 -158 83 -298q74 -157 193 -236q102 -68 216 -69q186 3 256 91q74 91 74 185h48v-143q0 -70 -111 -127q-105 -54 -267 -56q-181 0 -325.5 98t-223.5 274z" />
<glyph unicode="&#x2116;" horiz-adv-x="2271" />
<glyph unicode="&#x2122;" horiz-adv-x="1497" />
<glyph unicode="&#x2202;" d="M232 537q0 -41 5 -79q14 -122 61.5 -230t118.5 -165q64 -53 128 -53q6 0 13 1q70 5 127.5 70.5t80.5 179.5q16 73 16 149q0 42 -5 85q-14 122 -62.5 231.5t-119.5 165.5q-65 50 -128 50h-11q-68 -5 -126 -69.5t-82 -178.5q-16 -84 -16 -157zM937 477q0 -132 -56.5 -251 t-159 -185t-214.5 -66t-214.5 66t-159 185t-56.5 251q0 131 58 251t161 185t211 65q109 0 212 -65q29 -18 54 -41q-84 235 -233.5 377t-326.5 155v55q306 0 515 -285t209 -697z" />
<glyph unicode="&#x2206;" horiz-adv-x="1081" d="M514 1195l-406 -1072h801zM547 1434l526 -1434h-1067z" />
<glyph unicode="&#x220f;" horiz-adv-x="1515" d="M511 1384q-102 0 -102 -235v-1281q0 -235 102 -235h97v-51h-560v51h96q103 0 103 235v1281q0 235 -103 235h-96v50h1419v-50h-97q-102 0 -102 -235v-1281q0 -235 102 -235h97v-50h-560v50h96q103 0 103 235v1281q0 235 -103 235h-492z" />
<glyph unicode="&#x2211;" horiz-adv-x="1206" d="M1059 548l-788 -914h635q130 0 189 182h49l-103 -232h-921v50q62 0 106 53l663 781l-663 859q-44 57 -106 57v50h921l103 -232h-49q-59 182 -189 182h-485z" />
<glyph unicode="&#x2212;" d="M87 647v140h839l1 -1v-139h-840z" />
<glyph unicode="&#x221a;" d="M181 0l-164 359l74 35l85 -185l728 1470h150v-60h-72z" />
<glyph unicode="&#x221e;" d="M439 755q-15 103 -74 133q-46 22 -84 22q-12 0 -23 -2q-49 -10 -92.5 -44.5t-65.5 -84.5q-20 -46 -20 -90v-8q2 -48 27.5 -89t71.5 -58q29 -11 61 -11q16 0 33 3q47 10 90.5 43.5t75.5 185.5zM466 687q12 -96 94 -153q69 -48 123 -48q11 0 21 2q62 12 117.5 52t84.5 101 q26 54 26 108v11q-2 60 -35.5 108.5t-91.5 68.5q-37 13 -76 13q-22 0 -44 -4q-67 -9 -127 -62t-92 -197zM450 827q9 35 21 69q34 88 95 137t128 49t128 -48t95 -135t34 -182t-34 -182t-95 -135t-128 -48t-128 49t-95 136q-12 35 -21 70q-5 -21 -12 -41q-27 -73 -74 -113 t-99 -40t-100 41t-73.5 113.5t-25.5 149.5q0 76 25.5 149t73.5 114t100 41t99 -40t74 -112q7 -21 12 -42z" />
<glyph unicode="&#x222b;" horiz-adv-x="665" d="M-12 -281q-60 0 -60 29v159h36q1 -43 34.5 -64.5t63.5 -21.5h1q82 0 115 162q32 162 40 316l70 734l8 62q27 238 135 429.5t234 191.5q60 0 60 -29v-159h-36q-1 43 -35 64.5t-63 21.5q-71 0 -116 -155.5t-49 -363.5l-73 -767q-20 -231 -130.5 -420t-234.5 -189z" />
<glyph unicode="&#x2248;" d="M923 1053v-156q-63 -72 -122 -97.5t-116 -25.5q-60 0 -177.5 48.5t-176.5 48.5q-51 0 -107.5 -28t-129.5 -112v156q64 73 123 99t114 26q64 0 181.5 -49.5t172.5 -49.5q52 0 108.5 28t129.5 112zM923 705v-156q-63 -72 -122 -97.5t-116 -25.5q-60 0 -177.5 48.5 t-176.5 48.5q-51 0 -107.5 -28t-129.5 -112v156q64 73 123 99t114 26q64 0 181.5 -49.5t172.5 -49.5q52 0 108.5 28t129.5 112z" />
<glyph unicode="&#x2264;" d="M927 1074l-625 -359l625 -355v-167l-840 481v83l840 484v-167zM87 1v140h839l1 -1v-139h-840z" />
<glyph unicode="&#x2265;" d="M87 1241l840 -484v-83l-840 -481v167l625 355l-625 359v167zM87 2v140h839l1 -1v-139h-840z" />
<glyph unicode="&#x25fc;" horiz-adv-x="1430" d="M0 1430h1430v-1430h-1430v1430z" />
<glyph unicode="&#xf001;" horiz-adv-x="1073" />
<glyph unicode="&#xf002;" horiz-adv-x="1081" />
</font>
</defs>
</svg>
